<svg width="37" height="66" viewBox="0 0 37 66" fill="none" xmlns="http://www.w3.org/2000/svg">
<path d="M23.436 49.544C22.9813 50.9493 22.0513 51.652 20.646 51.652H18.228C16.74 51.652 15.7893 50.97 15.376 49.606L11.47 37.206C11.3047 36.7513 11.0773 36.4 10.788 36.152C10.54 35.904 10.2713 35.78 9.982 35.78C9.61 35.78 9.3 35.9453 9.052 36.276C8.804 36.6067 8.68 37.0613 8.68 37.64V53.016C8.68 54.6693 7.85333 55.496 6.2 55.496H5.58C3.92667 55.496 3.1 54.6693 3.1 53.016V13.522C3.1 11.8687 3.92667 11.042 5.58 11.042H6.51C7.95667 11.042 8.88667 11.724 9.3 13.088L17.732 40.058C17.8973 40.6367 18.1247 41.0707 18.414 41.36C18.7033 41.6493 18.9927 41.794 19.282 41.794C19.6127 41.794 19.9227 41.6493 20.212 41.36C20.5013 41.0293 20.7287 40.5747 20.894 39.996L28.83 13.15C29.2847 11.7447 30.2147 11.042 31.62 11.042H32.674C34.3273 11.042 35.154 11.8687 35.154 13.522V53.016C35.154 54.6693 34.3273 55.496 32.674 55.496H32.054C30.4007 55.496 29.574 54.6693 29.574 53.016V38.322C29.574 37.7433 29.45 37.3093 29.202 37.02C28.954 36.6893 28.644 36.524 28.272 36.524C27.6107 36.524 27.1353 36.9787 26.846 37.888L23.436 49.544Z" fill="black"/>
<path d="M6.835 58.215C6.835 57.8683 7.00833 57.695 7.355 57.695H7.498C7.84467 57.695 8.018 57.8683 8.018 58.215V62.791C8.018 63.0423 7.93133 63.259 7.758 63.441L7.342 63.857C7.16867 64.0303 6.95633 64.117 6.705 64.117H5.106C4.85467 64.117 4.64233 64.0303 4.469 63.857L4.04 63.428C3.86667 63.2547 3.78 63.0423 3.78 62.791V58.215C3.78 57.8683 3.95333 57.695 4.3 57.695H4.443C4.78967 57.695 4.963 57.8683 4.963 58.215V62.414C4.963 62.7607 5.13633 62.934 5.483 62.934H6.315C6.66167 62.934 6.835 62.7607 6.835 62.414V58.215ZM11.9868 64.104C12.3334 64.104 12.5068 63.9307 12.5068 63.584V63.285C12.5068 62.9383 12.3334 62.765 11.9868 62.765H10.7778C10.5178 62.765 10.3011 62.6783 10.1278 62.505L9.71176 62.089C9.53842 61.9157 9.45176 61.7033 9.45176 61.452V59.021C9.45176 58.7697 9.53842 58.5573 9.71176 58.384L10.1408 57.955C10.3141 57.7817 10.5264 57.695 10.7778 57.695H13.1698C13.5164 57.695 13.6898 57.8683 13.6898 58.215V63.961C13.6898 64.091 13.6681 64.2037 13.6248 64.299C13.5814 64.403 13.5121 64.5027 13.4168 64.598L13.0008 65.014C12.8274 65.1873 12.6151 65.274 12.3638 65.274H10.0888C9.74209 65.274 9.56876 65.1007 9.56876 64.754V64.624C9.56876 64.2773 9.74209 64.104 10.0888 64.104H11.9868ZM10.6348 61.062C10.6348 61.4087 10.8081 61.582 11.1548 61.582H11.9868C12.3334 61.582 12.5068 61.4087 12.5068 61.062V59.398C12.5068 59.0513 12.3334 58.878 11.9868 58.878H11.1548C10.8081 58.878 10.6348 59.0513 10.6348 59.398V61.062ZM19.3389 61.179C19.3389 61.5257 19.1655 61.699 18.8189 61.699H16.8169C16.4702 61.699 16.2969 61.8723 16.2969 62.219V62.401C16.2969 62.7477 16.4702 62.921 16.8169 62.921H18.8189C19.1655 62.921 19.3389 63.0943 19.3389 63.441V63.584C19.3389 63.9307 19.1655 64.104 18.8189 64.104H16.4269C16.1755 64.104 15.9632 64.013 15.7899 63.831L15.3739 63.415C15.2005 63.2417 15.1139 63.0293 15.1139 62.778V59.008C15.1139 58.7567 15.2005 58.5443 15.3739 58.371L15.7899 57.955C15.9632 57.7817 16.1755 57.695 16.4269 57.695H18.0259C18.2772 57.695 18.4895 57.7817 18.6629 57.955L19.0789 58.371C19.2522 58.5443 19.3389 58.7567 19.3389 59.008V61.179ZM16.2969 60.139C16.2969 60.4857 16.4702 60.659 16.8169 60.659H17.6359C17.9825 60.659 18.1559 60.4857 18.1559 60.139V59.385C18.1559 59.0383 17.9825 58.865 17.6359 58.865H16.8169C16.4702 58.865 16.2969 59.0383 16.2969 59.385V60.139ZM24.2113 59.554C24.0467 59.554 23.9167 59.5237 23.8213 59.463C23.7347 59.4023 23.6913 59.3157 23.6913 59.203C23.6913 59.099 23.6437 59.0167 23.5483 58.956C23.4617 58.8953 23.336 58.865 23.1713 58.865H22.3393C21.9927 58.865 21.8193 59.0383 21.8193 59.385V59.918C21.8193 60.2647 21.9927 60.438 22.3393 60.438H23.5483C23.7997 60.438 24.012 60.5247 24.1853 60.698L24.6143 61.127C24.7877 61.3003 24.8743 61.5127 24.8743 61.764V62.791C24.8743 63.0423 24.7877 63.2547 24.6143 63.428L24.1853 63.857C24.012 64.0303 23.7997 64.117 23.5483 64.117H21.9623C21.711 64.117 21.4987 64.0303 21.3253 63.857L20.8963 63.428C20.723 63.2547 20.6363 63.0423 20.6363 62.791V62.778C20.6363 62.4313 20.8097 62.258 21.1563 62.258H21.2993C21.464 62.258 21.5897 62.2883 21.6763 62.349C21.7717 62.4097 21.8193 62.492 21.8193 62.596C21.8193 62.7 21.8627 62.7823 21.9493 62.843C22.0447 62.9037 22.1747 62.934 22.3393 62.934H23.1713C23.518 62.934 23.6913 62.7607 23.6913 62.414V62.024C23.6913 61.6773 23.518 61.504 23.1713 61.504H21.9493C21.8193 61.504 21.7067 61.4867 21.6113 61.452C21.516 61.4087 21.4163 61.3437 21.3123 61.257L20.9223 60.919C20.8183 60.8323 20.7447 60.7413 20.7013 60.646C20.658 60.542 20.6363 60.4207 20.6363 60.282V59.008C20.6363 58.878 20.658 58.7653 20.7013 58.67C20.7447 58.566 20.814 58.4663 20.9093 58.371L21.3253 57.955C21.4987 57.7817 21.711 57.695 21.9623 57.695H23.5483C23.8083 57.695 24.025 57.7817 24.1983 57.955L24.6143 58.371C24.7877 58.5443 24.8743 58.7567 24.8743 59.008V59.034C24.8743 59.3807 24.701 59.554 24.3543 59.554H24.2113ZM29.1615 62.934C29.5082 62.934 29.6815 63.1073 29.6815 63.454V63.597C29.6815 63.9437 29.5082 64.117 29.1615 64.117H28.2645C28.0132 64.117 27.8008 64.0303 27.6275 63.857L27.1985 63.428C27.0252 63.2547 26.9385 63.0423 26.9385 62.791V59.385C26.9385 59.2203 26.8952 59.0947 26.8085 59.008C26.7218 58.9127 26.5962 58.865 26.4315 58.865C26.0848 58.865 25.9115 58.6917 25.9115 58.345V58.215C25.9115 58.0503 25.9548 57.9247 26.0415 57.838C26.1368 57.7427 26.2668 57.695 26.4315 57.695C26.5962 57.695 26.7218 57.6517 26.8085 57.565C26.8952 57.4697 26.9385 57.3397 26.9385 57.175V56.707C26.9385 56.3603 27.1118 56.187 27.4585 56.187H27.6015C27.9482 56.187 28.1215 56.3603 28.1215 56.707V57.175C28.1215 57.5217 28.2948 57.695 28.6415 57.695H29.1615C29.5082 57.695 29.6815 57.8683 29.6815 58.215V58.345C29.6815 58.6917 29.5082 58.865 29.1615 58.865H28.6415C28.2948 58.865 28.1215 59.0383 28.1215 59.385V62.414C28.1215 62.7607 28.2948 62.934 28.6415 62.934H29.1615ZM33.7745 58.215C33.7745 57.8683 33.9478 57.695 34.2945 57.695H34.4375C34.7841 57.695 34.9575 57.8683 34.9575 58.215V62.791C34.9575 63.0423 34.8708 63.259 34.6975 63.441L34.2815 63.857C34.1081 64.0303 33.8958 64.117 33.6445 64.117H32.0455C31.7941 64.117 31.5818 64.0303 31.4085 63.857L30.9795 63.428C30.8061 63.2547 30.7195 63.0423 30.7195 62.791V58.215C30.7195 57.8683 30.8928 57.695 31.2395 57.695H31.3825C31.7291 57.695 31.9025 57.8683 31.9025 58.215V62.414C31.9025 62.7607 32.0758 62.934 32.4225 62.934H33.2545C33.6011 62.934 33.7745 62.7607 33.7745 62.414V58.215Z" fill="black"/>
</svg>
